<?xml version="1.0" encoding="utf-8"?>
<!-- Generator: Adobe Illustrator 16.0.0, SVG Export Plug-In . SVG Version: 6.00 Build 0)  -->
<!DOCTYPE svg PUBLIC "-//W3C//DTD SVG 1.1//EN" "http://www.w3.org/Graphics/SVG/1.1/DTD/svg11.dtd">
<svg version="1.1" xmlns="http://www.w3.org/2000/svg" xmlns:xlink="http://www.w3.org/1999/xlink" x="0px" y="0px" width="180px"
	 height="300px" viewBox="0 0 180 300" enable-background="new 0 0 180 300" xml:space="preserve">
<g id="Layer_1">
	<rect x="-30.246" y="-21.537" fill="#0E5BD8" width="255" height="337"/>
	<g>
		<path fill="#FFFFFF" d="M91.96,247.042c2.425,8.524,9.298,11.715,14.859,16.17c2.332,1.868,4.793,3.736,7.49,4.943
			c4.58,2.045,9.297,0.375,11.656-3.586c2.456-4.131,1.657-8.627-2.279-11.954c-2.669-2.255-5.395-4.46-8.236-6.489
			c-3.707-2.645-6.514-5.8-8.282-10.136c-2.316-5.679-5.06-11.202-7.954-16.614c-1.621-3.029-3.433-6.28-6.001-8.426
			c-9.25-7.731-22.748-4.265-28.068,7.205c-3.849,8.298-7.357,16.777-10.508,25.363c-2.27,6.186-2.637,12.664-0.646,19.178
			c1.054,3.442,1.927,7.01,2.286,10.582c1.959,19.472,3.768,38.958,5.613,58.44h17.96c1.194-17.647,2.658-35.291,3.1-52.958
			C83.228,267.612,86.784,257.846,91.96,247.042z"/>
		<path fill="#FFFFFF" d="M180,211.327c-6.456-5.862-16.618-6.281-23.648,0.09c-2.744,2.488-4.459,6.167-6.453,9.419
			c-5.617,9.158-7.075,21.037-17.683,26.963c-0.414,0.229-0.672,1.661-0.37,2.109c3.993,5.937,3.972,12.099,0.849,18.71
			c1.024-0.105,1.74,0.039,2.138-0.252c5.642-4.121,11.418-8.086,16.769-12.562c2.49-2.082,4.129-5.182,6.595-8.396
			c2.873,8.473,7.525,15.914,7.94,25.088c0.893,19.753,2.246,39.487,3.544,59.222H180V211.327z"/>
		<path fill="#FFFFFF" d="M99.815,169.351c-10.165,0.027-18.345,8.188-18.412,18.366c-0.069,10.283,8.263,18.634,18.56,18.603
			c10.109-0.032,18.366-8.261,18.453-18.388C118.503,177.692,110.123,169.32,99.815,169.351z"/>
		<path fill="#FFFFFF" d="M149.632,206.319c10.31,0.063,18.651-8.231,18.635-18.527c-0.018-10.165-8.192-18.386-18.34-18.441
			c-10.317-0.058-18.703,8.252-18.676,18.507C131.276,197.959,139.537,206.258,149.632,206.319z"/>
		<path fill="#FFFFFF" d="M104.858,160.698c0.853,1.151,3.418,1.733,4.992,1.439c1.352-0.252,2.399-2.123,3.959-3.647
			c-2.47-4.342-4.403-8.333-6.99-11.844c-0.6-0.814-3.813-0.578-5.115,0.269c-1.122,0.728-2.063,3.296-1.633,4.551
			C101.192,154.726,102.811,157.935,104.858,160.698z"/>
		<path fill="#FFFFFF" d="M129.282,149.841c0-1.68,0.185-3.386-0.043-5.034c-0.337-2.441-2.043-4.294-4.36-3.861
			c-1.627,0.303-3.919,2.113-4.189,3.571c-0.626,3.354-0.621,6.982-0.004,10.34c0.263,1.431,2.703,3.419,4.141,3.409
			c1.457-0.012,3.326-1.931,4.217-3.475c0.752-1.307,0.361-3.271,0.478-4.943C129.441,149.846,129.362,149.843,129.282,149.841z"/>
		<path fill="#FFFFFF" d="M138.999,161.713c1.014,0.821,4.177,0.821,4.772,0.004c2.578-3.526,4.563-7.487,7.017-11.726
			c-1.563-1.613-2.578-3.544-3.952-3.845c-1.547-0.339-4.165,0.242-4.999,1.386c-2.026,2.776-3.659,5.997-4.682,9.278
			C136.725,158.191,137.784,160.732,138.999,161.713z"/>
	</g>
</g>
<g id="레이어_2">
</g>
</svg>
